<?xml version="1.0" encoding="UTF-8"?>
<svg width="512" height="512" viewBox="0 0 512 512" xmlns="http://www.w3.org/2000/svg">
  <defs>
    <linearGradient id="micGradient" x1="0%" y1="0%" x2="100%" y2="100%">
      <stop offset="0%" style="stop-color:#4A90E2;stop-opacity:1" />
      <stop offset="100%" style="stop-color:#357ABD;stop-opacity:1" />
    </linearGradient>
  </defs>

  <!-- Microphone body -->
  <rect x="180" y="80" width="152" height="240" rx="76" ry="76" fill="url(#micGradient)" stroke="#2C5AA0" stroke-width="4"/>

  <!-- Microphone grille lines -->
  <line x1="200" y1="120" x2="312" y2="120" stroke="#E8F4F8" stroke-width="3" opacity="0.8"/>
  <line x1="200" y1="140" x2="312" y2="140" stroke="#E8F4F8" stroke-width="3" opacity="0.8"/>
  <line x1="200" y1="160" x2="312" y2="160" stroke="#E8F4F8" stroke-width="3" opacity="0.8"/>
  <line x1="200" y1="180" x2="312" y2="180" stroke="#E8F4F8" stroke-width="3" opacity="0.8"/>
  <line x1="200" y1="200" x2="312" y2="200" stroke="#E8F4F8" stroke-width="3" opacity="0.8"/>
  <line x1="200" y1="220" x2="312" y2="220" stroke="#E8F4F8" stroke-width="3" opacity="0.8"/>
  <line x1="200" y1="240" x2="312" y2="240" stroke="#E8F4F8" stroke-width="3" opacity="0.8"/>
  <line x1="200" y1="260" x2="312" y2="260" stroke="#E8F4F8" stroke-width="3" opacity="0.8"/>
  <line x1="200" y1="280" x2="312" y2="280" stroke="#E8F4F8" stroke-width="3" opacity="0.8"/>

  <!-- Microphone stand -->
  <line x1="256" y1="320" x2="256" y2="400" stroke="#666666" stroke-width="8" stroke-linecap="round"/>

  <!-- Base -->
  <ellipse cx="256" cy="400" rx="60" ry="12" fill="#666666"/>

  <!-- Sound waves -->
  <path d="M 360 160 Q 380 180 380 200 Q 380 220 360 240" stroke="#4A90E2" stroke-width="4" fill="none" opacity="0.7"/>
  <path d="M 380 140 Q 410 170 410 200 Q 410 230 380 260" stroke="#4A90E2" stroke-width="4" fill="none" opacity="0.5"/>
  <path d="M 400 120 Q 440 160 440 200 Q 440 240 400 280" stroke="#4A90E2" stroke-width="4" fill="none" opacity="0.3"/>

  <path d="M 152 160 Q 132 180 132 200 Q 132 220 152 240" stroke="#4A90E2" stroke-width="4" fill="none" opacity="0.7"/>
  <path d="M 132 140 Q 102 170 102 200 Q 102 230 132 260" stroke="#4A90E2" stroke-width="4" fill="none" opacity="0.5"/>
  <path d="M 112 120 Q 72 160 72 200 Q 72 240 112 280" stroke="#4A90E2" stroke-width="4" fill="none" opacity="0.3"/>
</svg>